<svg width="30" height="24" viewBox="0 0 30 24" fill="none" xmlns="http://www.w3.org/2000/svg">
<path d="M15.0524 0C8.39604 0 3 5.40541 3 12.0733C3 18.0994 7.40737 23.0943 13.1692 24V15.5633H10.109V12.0733H13.1692V9.41343C13.1692 6.38755 14.9686 4.71615 17.7216 4.71615C19.0403 4.71615 20.4195 4.95195 20.4195 4.95195V7.92313H18.8998C17.4026 7.92313 16.9356 8.85386 16.9356 9.80864V12.0733H20.2783L19.7439 15.5633H16.9356V24C22.6974 23.0943 27.1048 18.0996 27.1048 12.0733C27.1048 5.40541 21.7088 0 15.0524 0Z" fill="#9A9A9A"/>
<path d="M15.0524 0C8.39604 0 3 5.40541 3 12.0733C3 18.0994 7.40737 23.0943 13.1692 24V15.5633H10.109V12.0733H13.1692V9.41343C13.1692 6.38755 14.9686 4.71615 17.7216 4.71615C19.0403 4.71615 20.4195 4.95195 20.4195 4.95195V7.92313H18.8998C17.4026 7.92313 16.9356 8.85386 16.9356 9.80864V12.0733H20.2783L19.7439 15.5633H16.9356V24C22.6974 23.0943 27.1048 18.0996 27.1048 12.0733C27.1048 5.40541 21.7088 0 15.0524 0Z" fill="black" fill-opacity="0.2"/>
</svg>
